<svg xmlns="http://www.w3.org/2000/svg" viewBox="0 0 512 512" role="img" aria-label="HPE HOL Chip icon">
  <defs>
    <linearGradient id="bgB" x1="0" y1="0" x2="1" y2="1">
      <stop offset="0%" stop-color="#00A98F"/>
      <stop offset="100%" stop-color="#00483F"/>
    </linearGradient>
  </defs>
  <rect x="36" y="36" width="440" height="440" rx="92" fill="url(#bgB)"/>
  <rect x="36" y="36" width="440" height="440" rx="92" fill="none" stroke="rgba(255,255,255,.85)" stroke-width="12"/>
  <rect x="168" y="160" width="176" height="176" rx="18" fill="none" stroke="#fff" stroke-width="18"/>
  <rect x="222" y="214" width="68" height="68" rx="8" fill="#fff" opacity=".9"/>
  <g stroke="#fff" stroke-width="12" stroke-linecap="round">
    <line x1="188" y1="136" x2="188" y2="160"/><line x1="224" y1="136" x2="224" y2="160"/><line x1="260" y1="136" x2="260" y2="160"/><line x1="296" y1="136" x2="296" y2="160"/><line x1="332" y1="136" x2="332" y2="160"/>
    <line x1="188" y1="336" x2="188" y2="360"/><line x1="224" y1="336" x2="224" y2="360"/><line x1="260" y1="336" x2="260" y2="360"/><line x1="296" y1="336" x2="296" y2="360"/><line x1="332" y1="336" x2="332" y2="360"/>
  </g>
  <circle cx="346" cy="166" r="18" fill="#001F1A" opacity=".8"/>
</svg>
